<svg width="18" height="12" viewBox="0 0 18 12" fill="none" xmlns="http://www.w3.org/2000/svg">
<path d="M7.25 5.43726C8.21875 4.93726 8.75 4.21851 8.75 3.12476C8.75 0.906006 7.09375 0.374756 5.21875 0.374756H0V11.4373H5.34375C7.375 11.4373 9.25 10.4685 9.25 8.21851C9.25 6.84351 8.59375 5.81226 7.25 5.43726ZM2.40625 2.24976H4.71875C5.59375 2.24976 6.375 2.49976 6.375 3.53101C6.375 4.46851 5.75 4.84351 4.875 4.84351H2.40625V2.24976ZM5.03125 9.56226H2.40625V6.49976H5.0625C6.15625 6.49976 6.8125 6.96851 6.8125 8.09351C6.8125 9.21851 6 9.56226 5.03125 9.56226ZM16.2188 2.03101V0.937256H11.75V2.03101H16.2188ZM18 7.56226C18 5.18726 16.5938 3.18726 14.0938 3.18726C11.625 3.18726 9.96875 5.03101 9.96875 7.43726C9.96875 9.93726 11.5625 11.656 14.0938 11.656C16 11.656 17.25 10.781 17.8438 8.96851H15.9062C15.6875 9.65601 14.8125 9.99976 14.1562 9.99976C12.875 9.99976 12.1875 9.24976 12.1875 7.96851H17.9688C17.9688 7.84351 18 7.68726 18 7.56226ZM12.1875 6.56226C12.25 5.53101 12.9688 4.87476 14 4.87476C15.125 4.87476 15.6875 5.49976 15.7812 6.56226H12.1875Z" fill="#0E0827"/>
</svg>
