<svg width="16" height="18" viewBox="0 0 16 18" fill="none" xmlns="http://www.w3.org/2000/svg">
<path d="M15.6875 5.99976L8.375 1.12476C8.125 0.968506 7.84375 0.968506 7.59375 1.12476L0.28125 5.99976C0.09375 6.12476 0 6.34351 0 6.56226V11.4373C0 11.6873 0.09375 11.906 0.28125 12.031L7.59375 16.906C7.84375 17.0623 8.125 17.0623 8.375 16.906L15.6875 12.031C15.875 11.906 16 11.6873 16 11.4373V6.56226C16 6.34351 15.875 6.12476 15.6875 5.99976ZM8.6875 2.99976L14.0625 6.56226L11.6562 8.18726L8.6875 6.18726V2.99976ZM7.3125 2.99976V6.18726L4.3125 8.18726L1.90625 6.56226L7.3125 2.99976ZM1.375 7.87476L3.09375 8.99976L1.375 10.156V7.87476ZM7.3125 15.031L1.90625 11.4373L4.3125 9.84351L7.3125 11.8435V15.031ZM8 10.6248L5.5625 8.99976L8 7.37476L10.4062 8.99976L8 10.6248ZM8.6875 15.031V11.8435L11.6562 9.84351L14.0625 11.4373L8.6875 15.031ZM14.625 10.156L12.875 8.99976L14.625 7.87476V10.156Z" fill="#0E0827"/>
</svg>
