<svg width="16" height="16" viewBox="0 0 16 16" fill="none" xmlns="http://www.w3.org/2000/svg">
<g clip-path="url(#clip0_384_170)">
<path d="M9.33333 6.66667H12.6667L8 12L3.33333 6.66667H6.66667V0H9.33333V6.66667ZM12.142 1.16933L11.3333 2.23533C13.3227 3.39 14.6667 5.53867 14.6667 8C14.6667 11.676 11.676 14.6667 8 14.6667C4.324 14.6667 1.33333 11.676 1.33333 8C1.33333 5.53867 2.67733 3.39 4.66667 2.23533L3.858 1.16933C1.548 2.57133 0 5.10067 0 8C0 12.418 3.582 16 8 16C12.418 16 16 12.418 16 8C16 5.10067 14.452 2.57133 12.142 1.16933Z" fill="white"/>
</g>
<defs>
<clipPath id="clip0_384_170">
<rect width="16" height="16" fill="white"/>
</clipPath>
</defs>
</svg>
