<svg width="16" height="13" viewBox="0 0 16 13" fill="none" xmlns="http://www.w3.org/2000/svg">
<path d="M0 2.99878C0 1.90503 0.875 0.998779 2 0.998779H14C15.0938 0.998779 16 1.90503 16 2.99878V10.9988C16 12.1238 15.0938 12.9988 14 12.9988H2C0.875 12.9988 0 12.1238 0 10.9988V2.99878ZM1.5 2.99878V3.71753L6.875 8.12378C7.53125 8.65503 8.4375 8.65503 9.09375 8.12378L14.5 3.71753V2.99878C14.5 2.74878 14.25 2.49878 14 2.49878H2C1.71875 2.49878 1.5 2.74878 1.5 2.99878ZM1.5 5.65503V10.9988C1.5 11.28 1.71875 11.4988 2 11.4988H14C14.25 11.4988 14.5 11.28 14.5 10.9988V5.65503L10.0625 9.28003C8.84375 10.28 7.125 10.28 5.90625 9.28003L1.5 5.65503Z" fill="#0E0827"/>
</svg>
