<svg width="16" height="16" viewBox="0 0 16 16" fill="none" xmlns="http://www.w3.org/2000/svg">
<path d="M7.75 5.875C7.49219 5.89844 7.23438 5.92188 7 5.99219C7.11719 6.17969 7.16406 6.41406 7.1875 6.625C7.1875 7.35156 6.57812 7.9375 5.875 7.9375C5.64062 7.9375 5.40625 7.89062 5.24219 7.77344C5.17188 8.00781 5.125 8.24219 5.125 8.5C5.125 9.95312 6.29688 11.125 7.75 11.125C9.20312 11.125 10.375 9.95312 10.375 8.5C10.375 7.07031 9.20312 5.89844 7.75 5.89844V5.875ZM14.4062 8.17188C13.1406 5.6875 10.6094 4 7.75 4C4.86719 4 2.33594 5.6875 1.07031 8.17188C1.02344 8.26562 1 8.38281 1 8.5C1 8.64062 1.02344 8.75781 1.07031 8.85156C2.33594 11.3359 4.86719 13 7.75 13C10.6094 13 13.1406 11.3359 14.4062 8.85156C14.4531 8.75781 14.4766 8.64062 14.4766 8.52344C14.4766 8.38281 14.4531 8.26562 14.4062 8.17188ZM7.75 11.875C5.42969 11.875 3.29688 10.5859 2.17188 8.5C3.29688 6.41406 5.42969 5.125 7.75 5.125C10.0469 5.125 12.1797 6.41406 13.3047 8.5C12.1797 10.5859 10.0469 11.875 7.75 11.875Z" fill="white"/>
</svg>
