<svg width="16" height="16" viewBox="0 0 16 16" fill="none" xmlns="http://www.w3.org/2000/svg">
<path d="M2.4375 3C2.4375 1.34375 3.75 0 5.40625 0H10.5625C12.2188 0 13.5312 1.34375 13.5312 3C13.5312 4.0625 13 4.96875 12.1875 5.5C13 6.0625 13.5312 6.96875 13.5312 8.03125C13.5312 9.65625 12.2188 11 10.5625 11H10.5C9.71875 11 9 10.7188 8.46875 10.2188V13C8.46875 14.6562 7.09375 16 5.4375 16C3.78125 16 2.4375 14.6875 2.4375 13.0312C2.4375 11.9688 2.96875 11.0625 3.78125 10.5312C2.96875 9.96875 2.4375 9.0625 2.4375 8.03125C2.4375 6.96875 2.96875 6.0625 3.78125 5.5C2.96875 4.96875 2.4375 4.0625 2.4375 3ZM7.5 6H5.40625C4.3125 6 3.40625 6.90625 3.40625 8.03125C3.40625 9.125 4.28125 10.0312 5.40625 10.0312H7.5V6ZM8.46875 8.03125C8.46875 9.125 9.375 10.0312 10.5 10.0312H10.5625C11.6562 10.0312 12.5625 9.125 12.5625 8.03125C12.5625 6.90625 11.6562 6 10.5625 6H10.5C9.375 6 8.46875 6.90625 8.46875 8.03125ZM5.40625 11C4.28125 11.0312 3.40625 11.9062 3.40625 13.0312C3.40625 14.125 4.3125 15.0312 5.4375 15.0312C6.5625 15.0312 7.5 14.125 7.5 13V11H5.40625ZM5.40625 1C4.3125 1 3.40625 1.90625 3.40625 3C3.40625 4.125 4.3125 5.03125 5.40625 5.03125H7.5V1H5.40625ZM8.46875 5.03125H10.5625C11.6562 5.03125 12.5625 4.125 12.5625 3C12.5625 1.90625 11.6562 1 10.5625 1H8.46875V5.03125Z" fill="white"/>
</svg>
