<svg width="16" height="16" viewBox="0 0 16 16" fill="none" xmlns="http://www.w3.org/2000/svg">
<path d="M5.15625 12.4373C5.15625 12.3748 5.09375 12.3123 5 12.3123C4.90625 12.3123 4.84375 12.3748 4.84375 12.4373C4.84375 12.4998 4.90625 12.5623 5 12.531C5.09375 12.531 5.15625 12.4998 5.15625 12.4373ZM4.1875 12.281C4.1875 12.3435 4.25 12.4373 4.34375 12.4373C4.40625 12.4685 4.5 12.4373 4.53125 12.3748C4.53125 12.3123 4.5 12.2498 4.40625 12.2185C4.3125 12.1873 4.21875 12.2185 4.1875 12.281ZM5.59375 12.2498C5.5 12.2498 5.4375 12.3123 5.4375 12.406C5.4375 12.4685 5.53125 12.4998 5.625 12.4685C5.71875 12.4373 5.78125 12.406 5.75 12.3435C5.75 12.281 5.65625 12.2185 5.59375 12.2498ZM7.625 0.249756C3.3125 0.249756 0 3.56226 0 7.87476C0 11.3435 2.15625 14.3123 5.28125 15.3748C5.6875 15.4373 5.8125 15.1873 5.8125 14.9998C5.8125 14.781 5.8125 13.7185 5.8125 13.0623C5.8125 13.0623 3.625 13.531 3.15625 12.1248C3.15625 12.1248 2.8125 11.2185 2.3125 10.9998C2.3125 10.9998 1.59375 10.4998 2.34375 10.4998C2.34375 10.4998 3.125 10.5623 3.5625 11.3123C4.25 12.531 5.375 12.1873 5.84375 11.9685C5.90625 11.4685 6.09375 11.1248 6.34375 10.906C4.59375 10.7185 2.8125 10.4685 2.8125 7.46851C2.8125 6.59351 3.0625 6.18726 3.5625 5.62476C3.46875 5.40601 3.21875 4.59351 3.65625 3.49976C4.28125 3.31226 5.8125 4.34351 5.8125 4.34351C6.4375 4.15601 7.09375 4.09351 7.75 4.09351C8.4375 4.09351 9.09375 4.15601 9.71875 4.34351C9.71875 4.34351 11.2188 3.28101 11.875 3.49976C12.3125 4.59351 12.0312 5.40601 11.9688 5.62476C12.4688 6.18726 12.7812 6.59351 12.7812 7.46851C12.7812 10.4685 10.9375 10.7185 9.1875 10.906C9.46875 11.156 9.71875 11.6248 9.71875 12.3748C9.71875 13.406 9.6875 14.7185 9.6875 14.9685C9.6875 15.1873 9.84375 15.4373 10.25 15.3435C13.375 14.3123 15.5 11.3435 15.5 7.87476C15.5 3.56226 11.9688 0.249756 7.625 0.249756ZM3.03125 11.031C2.96875 11.0623 3 11.156 3.03125 11.2185C3.09375 11.2498 3.15625 11.281 3.21875 11.2498C3.25 11.2185 3.25 11.1248 3.1875 11.0623C3.125 11.031 3.0625 10.9998 3.03125 11.031ZM2.6875 10.781C2.65625 10.8435 2.6875 10.8748 2.75 10.906C2.8125 10.9373 2.875 10.9373 2.90625 10.8748C2.90625 10.8435 2.875 10.8123 2.8125 10.781C2.75 10.7498 2.71875 10.7498 2.6875 10.781ZM3.6875 11.906C3.65625 11.9373 3.65625 12.031 3.75 12.0935C3.8125 12.156 3.90625 12.1873 3.9375 12.1248C3.96875 12.0935 3.96875 11.9998 3.90625 11.9373C3.84375 11.8748 3.75 11.8435 3.6875 11.906ZM3.34375 11.4373C3.28125 11.4685 3.28125 11.5623 3.34375 11.6248C3.40625 11.6873 3.46875 11.7185 3.53125 11.6873C3.5625 11.656 3.5625 11.5623 3.53125 11.4998C3.46875 11.4373 3.40625 11.406 3.34375 11.4373Z" fill="#0E0827"/>
</svg>
