<svg width="14" height="14" viewBox="0 0 14 14" fill="none" xmlns="http://www.w3.org/2000/svg">
<path d="M3.125 13.9998V4.65601H0.21875V13.9998H3.125ZM1.65625 3.40601C2.59375 3.40601 3.34375 2.62476 3.34375 1.68726C3.34375 0.781006 2.59375 0.0310059 1.65625 0.0310059C0.75 0.0310059 0 0.781006 0 1.68726C0 2.62476 0.75 3.40601 1.65625 3.40601ZM13.9688 13.9998H14V8.87476C14 6.37476 13.4375 4.43726 10.5 4.43726C9.09375 4.43726 8.15625 5.21851 7.75 5.93726H7.71875V4.65601H4.9375V13.9998H7.84375V9.37476C7.84375 8.15601 8.0625 6.99976 9.5625 6.99976C11.0625 6.99976 11.0938 8.37476 11.0938 9.46851V13.9998H13.9688Z" fill="#0E0827"/>
</svg>
