<svg width="133" height="32" viewBox="0 0 133 32" fill="none" xmlns="http://www.w3.org/2000/svg">
<path d="M44.3503 0L60.6331 31.8597H70.178L54.0355 0H44.3503ZM69.2289 22.7261L74.0034 31.9917L86.2148 8.83199L127.944 8.75974L132.355 0.15285L81.4389 0.188979L69.2289 22.7261ZM122.458 19.5093H88.7285L92.5442 12.4907H126.016M120.178 24.0518L116.246 31.9319H82.563L86.59 24.0518M12.4615 0.155629V19.4829C10.1576 19.4829 8.17891 18.5352 6.52812 16.6399C4.87594 14.7473 4.04916 12.4643 4.04916 9.79634C4.04916 7.15758 4.87594 4.89261 6.52812 2.99726C8.17891 1.10191 10.159 0.155629 12.4615 0.155629ZM0 32L4.07 24.0518H29.0597V31.9889L0 32ZM15.3268 0.155629H39.4285V8.56798H15.3268V0.155629ZM15.3268 19.4829V12.6602H32.1529C34.5179 12.6602 36.548 13.6009 38.2474 15.481C39.9441 17.3611 40.7931 19.6344 40.7931 22.3023C40.7931 24.9369 39.9288 27.2116 38.2016 29.1208C36.4744 31.0329 34.3817 31.9875 31.925 31.9875V22.6636C31.925 21.7562 31.6526 20.9961 31.1065 20.3889C30.5604 19.7844 29.8782 19.4815 29.0597 19.4815H15.3268V19.4829Z" fill="#FF5A00"/>
</svg>
