<svg width="12" height="16" viewBox="0 0 12 16" fill="none" xmlns="http://www.w3.org/2000/svg">
<path d="M7.51569 6.99975H11.0001C11.4157 6.99975 11.7907 7.25912 11.9094 7.64662C12.0813 8.03725 11.9719 8.47787 11.6594 8.75287L3.65944 15.7529C3.30631 16.0591 2.78975 16.0841 2.41225 15.8091C2.03444 15.5341 1.89694 15.0341 2.081 14.606L4.48444 8.99975H0.971938C0.583501 8.99975 0.21047 8.74037 0.0639383 8.35287C-0.0825929 7.96224 0.0280134 7.52162 0.341626 7.24662L8.34069 0.247183C8.69381 -0.0602544 9.20944 -0.0836606 9.58756 0.190808C9.96569 0.465371 10.1032 0.964433 9.91881 1.39381L7.51569 6.99975Z" fill="#0E0827"/>
</svg>
