<svg width="16" height="16" viewBox="0 0 16 16" fill="none" xmlns="http://www.w3.org/2000/svg">
<path d="M7.75 0.248779C3.46875 0.248779 0 3.71753 0 7.99878C0 12.28 3.46875 15.7488 7.75 15.7488C12.0312 15.7488 15.5 12.28 15.5 7.99878C15.5 3.71753 12.0312 0.248779 7.75 0.248779ZM11.5312 5.56128L10.2812 11.5613C10.1875 11.9988 9.9375 12.0925 9.5625 11.905L7.625 10.4675L6.6875 11.3738C6.59375 11.4675 6.5 11.5613 6.3125 11.5613L6.4375 9.59253L10.0312 6.34253C10.1875 6.21753 10 6.12378 9.78125 6.24878L5.34375 9.06128L3.4375 8.46753C3.03125 8.34253 3.03125 8.03003 3.53125 7.84253L11 4.96753C11.3438 4.84253 11.6562 5.06128 11.5312 5.56128Z" fill="#0E0827"/>
</svg>
