<svg aria-hidden="true" style="position: absolute; width: 0; height: 0; overflow: hidden;" version="1.1" xmlns="http://www.w3.org/2000/svg" xmlns:xlink="http://www.w3.org/1999/xlink">
  <defs>
    <symbol id="icon-figma" viewBox="0 0 32 32">
    <path d="M4.875 6c0-3.313 2.625-6 5.938-6h10.313c3.313 0 5.937 2.688 5.937 6 0 2.125-1.062 3.938-2.687 5 1.625 1.125 2.687 2.938 2.687 5.063 0 3.25-2.625 5.938-5.937 5.938h-0.125c-1.563 0-3-0.562-4.063-1.562v5.562c0 3.312-2.75 6-6.063 6s-6-2.625-6-5.938c0-2.125 1.063-3.937 2.688-5-1.625-1.125-2.688-2.937-2.688-5 0-2.125 1.063-3.938 2.688-5.063-1.625-1.063-2.688-2.875-2.688-5zM15 12h-4.188c-2.188 0-4 1.813-4 4.063 0 2.188 1.75 4 4 4h4.188v-8.062zM16.938 16.063c0 2.188 1.813 4 4.063 4h0.125c2.187 0 4-1.812 4-4 0-2.25-1.813-4.063-4-4.063h-0.125c-2.25 0-4.063 1.813-4.063 4.063zM10.813 22c-2.25 0.062-4 1.812-4 4.062 0 2.188 1.813 4 4.063 4s4.125-1.812 4.125-4.062v-4h-4.188zM10.813 2c-2.188 0-4 1.813-4 4 0 2.25 1.813 4.063 4 4.063h4.188v-8.063h-4.188zM16.938 10.063h4.188c2.187 0 4-1.813 4-4.063 0-2.188-1.813-4-4-4h-4.188v8.063z"></path>
    </symbol>
    <symbol id="icon-eye" viewBox="0 0 32 32">
    <path d="M15.5 11.75c-0.516 0.047-1.031 0.094-1.5 0.234 0.234 0.375 0.328 0.844 0.375 1.266 0 1.453-1.219 2.625-2.625 2.625-0.469 0-0.938-0.094-1.266-0.328-0.141 0.469-0.234 0.938-0.234 1.453 0 2.906 2.344 5.25 5.25 5.25s5.25-2.344 5.25-5.25c0-2.859-2.344-5.203-5.25-5.203v-0.047zM28.812 16.344c-2.531-4.969-7.594-8.344-13.312-8.344-5.766 0-10.828 3.375-13.359 8.344-0.094 0.187-0.141 0.422-0.141 0.656 0 0.281 0.047 0.516 0.141 0.703 2.531 4.969 7.594 8.297 13.359 8.297 5.719 0 10.781-3.328 13.312-8.297 0.094-0.188 0.141-0.422 0.141-0.656 0-0.281-0.047-0.516-0.141-0.703zM15.5 23.75c-4.641 0-8.906-2.578-11.156-6.75 2.25-4.172 6.516-6.75 11.156-6.75 4.594 0 8.859 2.578 11.109 6.75-2.25 4.172-6.516 6.75-11.109 6.75z"></path>
    </symbol>
    <symbol id="icon-send" viewBox="0 0 32 32">
    <path d="M32 0l-8 29.333-10.839-9.652 10.403-10.979-13.944 9.636-9.62-2.339 32-16zM12 22.224v9.776l4.344-5.908-4.344-3.868z"></path>
    </symbol>
    <symbol id="icon-email" viewBox="0 0 39 32">
    <path d="M0 7.382c0-2.692 2.154-4.923 4.923-4.923h29.538c2.692 0 4.923 2.231 4.923 4.923v19.692c0 2.769-2.231 4.923-4.923 4.923h-29.538c-2.769 0-4.923-2.154-4.923-4.923v-19.692zM3.692 7.382v1.769l13.231 10.846c1.615 1.308 3.846 1.308 5.462 0l13.308-10.846v-1.769c0-0.615-0.615-1.231-1.231-1.231h-29.538c-0.692 0-1.231 0.615-1.231 1.231zM3.692 13.92v13.154c0 0.692 0.538 1.231 1.231 1.231h29.538c0.615 0 1.231-0.539 1.231-1.231v-13.154l-10.923 8.923c-3 2.461-7.231 2.461-10.231 0l-10.846-8.923z"></path>
    </symbol>
    <symbol id="icon-telegram" viewBox="0 0 32 32">
    <path d="M15.5 0.498c-8.563 0-15.5 6.938-15.5 15.5s6.938 15.5 15.5 15.5c8.562 0 15.5-6.938 15.5-15.5s-6.938-15.5-15.5-15.5zM23.062 11.123l-2.5 12c-0.187 0.875-0.687 1.062-1.437 0.687l-3.875-2.875-1.875 1.813c-0.188 0.187-0.375 0.375-0.75 0.375l0.25-3.938 7.187-6.5c0.313-0.25-0.062-0.438-0.5-0.188l-8.875 5.625-3.813-1.188c-0.813-0.25-0.813-0.875 0.188-1.25l14.938-5.75c0.688-0.25 1.312 0.188 1.062 1.188z"></path>
    </symbol>
    <symbol id="icon-linkedin" viewBox="0 0 32 32">
    <path d="M7.143 32v-21.357h-6.643v21.357h6.643zM3.786 7.785c2.143 0 3.857-1.786 3.857-3.929 0-2.071-1.714-3.786-3.857-3.786-2.071 0-3.786 1.714-3.786 3.786 0 2.143 1.714 3.929 3.786 3.929zM31.929 32h0.071v-11.714c0-5.714-1.286-10.143-8-10.143-3.214 0-5.357 1.786-6.286 3.429h-0.071v-2.929h-6.357v21.357h6.643v-10.572c0-2.786 0.5-5.429 3.929-5.429s3.5 3.143 3.5 5.643v10.357h6.571z"></path>
    </symbol>
    <symbol id="icon-behance" viewBox="0 0 32 32">
    <path d="M12.889 15c1.722-0.889 2.667-2.167 2.667-4.111 0-3.944-2.944-4.889-6.278-4.889h-9.278v19.667h9.5c3.611 0 6.944-1.722 6.944-5.722 0-2.444-1.167-4.278-3.556-4.944zM4.278 9.333h4.111c1.556 0 2.944 0.444 2.944 2.278 0 1.667-1.111 2.333-2.667 2.333h-4.389v-4.611zM8.944 22.333h-4.667v-5.444h4.722c1.944 0 3.111 0.833 3.111 2.833s-1.444 2.611-3.167 2.611zM28.833 8.944v-1.944h-7.945v1.944h7.945zM32 18.777c0-4.222-2.5-7.778-6.944-7.778-4.389 0-7.333 3.278-7.333 7.556 0 4.444 2.833 7.5 7.333 7.5 3.389 0 5.611-1.556 6.667-4.778h-3.445c-0.389 1.222-1.944 1.833-3.111 1.833-2.278 0-3.5-1.333-3.5-3.611h10.278c0-0.222 0.055-0.5 0.055-0.722zM21.667 17c0.111-1.833 1.389-3 3.222-3 2 0 3 1.111 3.167 3h-6.389z"></path>
    </symbol>
    <symbol id="icon-so" viewBox="0 0 32 32">
    <path d="M23 19.928l-13.929-2.929-0.643 2.786 14 2.929 0.571-2.786zM26.643 13.714l-10.928-9.143-1.857 2.214 11 9.143 1.786-2.214zM24.429 16.571l-12.929-6.071-1.214 2.643 12.929 6 1.214-2.571zM21-0.001l-2.286 1.714 8.5 11.5 2.286-1.714-8.5-11.5zM22.429 23.428h-14.286v2.857h14.286v-2.857zM25.286 29.142h-20v-8.572h-2.857v11.429h25.714v-11.429h-2.857v8.572z"></path>
    </symbol>
    <symbol id="icon-codepen" viewBox="0 0 28 32">
    <path d="M27.889 10.666l-13-8.667c-0.444-0.278-0.944-0.278-1.389 0l-13 8.667c-0.333 0.222-0.5 0.611-0.5 1v8.667c0 0.444 0.167 0.833 0.5 1.055l13 8.667c0.444 0.278 0.944 0.278 1.389 0l13-8.667c0.333-0.222 0.556-0.611 0.556-1.055v-8.667c0-0.389-0.222-0.778-0.556-1zM15.444 5.333l9.556 6.333-4.278 2.889-5.278-3.556v-5.667zM13 5.333v5.667l-5.333 3.556-4.278-2.889 9.611-6.333zM2.444 14l3.056 2-3.056 2.056v-4.056zM13 26.722l-9.611-6.389 4.278-2.833 5.333 3.556v5.667zM14.222 18.889l-4.333-2.889 4.333-2.889 4.278 2.889-4.278 2.889zM15.444 26.722v-5.667l5.278-3.556 4.278 2.833-9.556 6.389zM26 18.055l-3.111-2.056 3.111-2v4.056z"></path>
    </symbol>
    <symbol id="icon-github" viewBox="0 0 32 32">
    <path d="M10.313 24.875c0-0.125-0.125-0.25-0.313-0.25s-0.313 0.125-0.313 0.25c0 0.125 0.125 0.25 0.313 0.187 0.188 0 0.313-0.062 0.313-0.187zM8.375 24.562c0 0.125 0.125 0.313 0.313 0.313 0.125 0.062 0.313 0 0.375-0.125 0-0.125-0.063-0.25-0.25-0.313s-0.375 0-0.438 0.125zM11.188 24.5c-0.188 0-0.313 0.125-0.313 0.312 0 0.125 0.188 0.188 0.375 0.125s0.313-0.125 0.25-0.25c0-0.125-0.188-0.25-0.313-0.187zM15.25 0.499c-8.625 0-15.25 6.625-15.25 15.25 0 6.937 4.313 12.875 10.563 15 0.813 0.125 1.063-0.375 1.063-0.75 0-0.438 0-2.563 0-3.875 0 0-4.375 0.937-5.313-1.875 0 0-0.688-1.813-1.688-2.25 0 0-1.438-1 0.063-1 0 0 1.563 0.125 2.438 1.625 1.375 2.437 3.625 1.75 4.563 1.312 0.125-1 0.5-1.687 1-2.125-3.5-0.375-7.063-0.875-7.063-6.875 0-1.75 0.5-2.563 1.5-3.688-0.188-0.438-0.688-2.063 0.188-4.25 1.25-0.375 4.313 1.688 4.313 1.688 1.25-0.375 2.563-0.5 3.875-0.5 1.375 0 2.688 0.125 3.938 0.5 0 0 3-2.125 4.313-1.688 0.875 2.188 0.312 3.813 0.188 4.25 1 1.125 1.625 1.938 1.625 3.688 0 6-3.687 6.5-7.187 6.875 0.563 0.5 1.063 1.438 1.063 2.938 0 2.062-0.063 4.687-0.063 5.187 0 0.438 0.313 0.938 1.125 0.75 6.25-2.062 10.5-8 10.5-14.937 0-8.625-7.062-15.25-15.75-15.25zM6.063 22.062c-0.125 0.063-0.063 0.25 0 0.375 0.125 0.063 0.25 0.125 0.375 0.063 0.063-0.063 0.063-0.25-0.063-0.375-0.125-0.063-0.25-0.125-0.313-0.063zM5.375 21.562c-0.063 0.125 0 0.188 0.125 0.25s0.25 0.063 0.313-0.062c0-0.063-0.063-0.125-0.188-0.188s-0.188-0.062-0.25 0zM7.375 23.812c-0.063 0.063-0.063 0.25 0.125 0.375 0.125 0.125 0.313 0.188 0.375 0.063 0.063-0.063 0.063-0.25-0.063-0.375s-0.313-0.188-0.438-0.063zM6.688 22.875c-0.125 0.062-0.125 0.25 0 0.375s0.25 0.187 0.375 0.125c0.063-0.063 0.063-0.25 0-0.375-0.125-0.125-0.25-0.188-0.375-0.125z"></path>
    </symbol>
    <symbol id="icon-stackblitz" viewBox="0 0 32 32">
    <path d="M19.031 13.999h6.969c0.831 0 1.581 0.519 1.819 1.294 0.344 0.781 0.125 1.662-0.5 2.213l-16 14c-0.706 0.612-1.739 0.662-2.494 0.112s-1.031-1.55-0.662-2.406l4.807-11.212h-7.025c-0.777 0-1.523-0.519-1.816-1.294-0.293-0.781-0.072-1.662 0.555-2.213l15.998-13.999c0.706-0.615 1.738-0.662 2.494-0.113s1.031 1.547 0.663 2.406l-4.806 11.212z"></path>
    </symbol>
    <symbol id="icon-dw" viewBox="0 0 32 32">
    <path d="M18.667 13.333h6.667l-9.333 10.667-9.333-10.667h6.667v-13.333h5.333v13.333zM24.284 2.339l-1.617 2.132c3.979 2.309 6.667 6.607 6.667 11.529 0 7.352-5.981 13.333-13.333 13.333s-13.333-5.981-13.333-13.333c0-4.923 2.688-9.22 6.667-11.529l-1.617-2.132c-4.62 2.804-7.716 7.863-7.716 13.661 0 8.836 7.164 16 16 16s16-7.164 16-16c0-5.799-3.096-10.857-7.716-13.661z"></path>
    </symbol>
    <symbol id="icon-bmc" viewBox="0 0 22 32">
    <path d="M19.793 7.444l-0.022-0.013-0.051-0.016c0.020 0.017 0.046 0.027 0.073 0.028v0z"></path>
    <path d="M20.113 9.73v0z"></path>
    <path d="M19.803 7.44c-0.003-0-0.006-0.001-0.009-0.002-0 0.002-0 0.004 0 0.006 0.003-0 0.007-0.002 0.009-0.004v0z"></path>
    <path d="M19.793 7.444h0.003v-0.002l-0.003 0.002z"></path>
    <path d="M20.093 9.726l0.037-0.021 0.014-0.008 0.012-0.013c-0.023 0.010-0.045 0.024-0.063 0.042v0z"></path>
    <path d="M19.857 7.494l-0.036-0.034-0.025-0.013c0.013 0.023 0.035 0.040 0.061 0.048v0z"></path>
    <path d="M10.759 29.678c-0.029 0.012-0.054 0.032-0.074 0.057l0.023-0.015c0.015-0.014 0.037-0.031 0.051-0.042z"></path>
    <path d="M16.042 28.638c0-0.033-0.016-0.027-0.012 0.090 0-0.009 0.004-0.019 0.006-0.028 0.002-0.021 0.004-0.041 0.006-0.062z"></path>
    <path d="M15.494 29.678c-0.029 0.012-0.054 0.032-0.074 0.057l0.023-0.015c0.015-0.014 0.037-0.031 0.051-0.042z"></path>
    <path d="M7.038 29.925c-0.022-0.019-0.049-0.032-0.077-0.036 0.023 0.011 0.046 0.023 0.062 0.031l0.016 0.005z"></path>
    <path d="M6.201 29.123c-0.003-0.034-0.014-0.067-0.031-0.096 0.012 0.031 0.022 0.063 0.030 0.095l0.001 0.002z"></path>
    <path fill="#fd0" style="fill: var(--color2, #fd0)" d="M11.825 14.782c-1.149 0.492-2.454 1.050-4.144 1.050-0.707-0.001-1.411-0.098-2.092-0.288l1.169 12.005c0.041 0.502 0.27 0.97 0.64 1.311s0.855 0.53 1.359 0.53c0 0 1.658 0.086 2.211 0.086 0.595 0 2.381-0.086 2.381-0.086 0.503 0 0.988-0.189 1.359-0.53s0.599-0.809 0.64-1.31l1.252-13.265c-0.56-0.191-1.124-0.318-1.761-0.318-1.101-0-1.988 0.379-3.013 0.818z"></path>
    <path d="M1.969 9.661l0.020 0.018 0.013 0.008c-0.010-0.010-0.021-0.019-0.033-0.026v0z"></path>
    <path d="M22.006 8.553l-0.176-0.888c-0.158-0.797-0.517-1.55-1.335-1.838-0.262-0.092-0.56-0.132-0.761-0.322s-0.26-0.487-0.307-0.762c-0.086-0.504-0.167-1.009-0.255-1.512-0.076-0.433-0.136-0.919-0.335-1.316-0.258-0.533-0.794-0.845-1.327-1.051-0.273-0.102-0.552-0.188-0.835-0.258-1.332-0.351-2.732-0.48-4.101-0.554-1.644-0.091-3.293-0.063-4.933 0.082-1.221 0.111-2.507 0.245-3.667 0.668-0.424 0.155-0.861 0.34-1.183 0.668-0.396 0.403-0.525 1.025-0.236 1.527 0.205 0.356 0.553 0.608 0.922 0.775 0.481 0.215 0.982 0.378 1.497 0.487 1.434 0.317 2.918 0.441 4.383 0.494 1.623 0.066 3.249 0.012 4.865-0.159 0.399-0.044 0.798-0.097 1.196-0.158 0.469-0.072 0.77-0.685 0.632-1.112-0.165-0.511-0.61-0.709-1.112-0.632-0.074 0.012-0.148 0.022-0.222 0.033l-0.053 0.008c-0.17 0.022-0.34 0.042-0.511 0.060-0.352 0.038-0.704 0.069-1.057 0.093-0.791 0.055-1.585 0.080-2.378 0.082-0.779 0-1.559-0.022-2.336-0.073-0.355-0.023-0.709-0.053-1.062-0.089-0.161-0.017-0.321-0.034-0.481-0.054l-0.152-0.019-0.033-0.005-0.158-0.023c-0.323-0.049-0.646-0.105-0.965-0.172-0.032-0.007-0.061-0.025-0.082-0.051s-0.032-0.058-0.032-0.091c0-0.033 0.011-0.065 0.032-0.091s0.050-0.044 0.082-0.051h0.006c0.277-0.059 0.556-0.109 0.836-0.153 0.093-0.015 0.187-0.029 0.281-0.043h0.003c0.175-0.012 0.351-0.043 0.526-0.064 1.517-0.158 3.043-0.212 4.567-0.161 0.74 0.022 1.48 0.065 2.216 0.14 0.158 0.016 0.316 0.034 0.474 0.053 0.060 0.007 0.121 0.016 0.182 0.023l0.122 0.018c0.356 0.053 0.711 0.118 1.064 0.193 0.523 0.114 1.194 0.151 1.426 0.723 0.074 0.182 0.108 0.384 0.149 0.574l0.052 0.243c0.001 0.004 0.002 0.009 0.003 0.013 0.123 0.574 0.246 1.148 0.37 1.722 0.009 0.042 0.009 0.086 0.001 0.129s-0.026 0.083-0.051 0.118c-0.025 0.035-0.057 0.066-0.094 0.088s-0.078 0.037-0.121 0.043h-0.003l-0.075 0.010-0.074 0.010c-0.236 0.031-0.472 0.059-0.709 0.086-0.466 0.053-0.932 0.099-1.4 0.138-0.928 0.077-1.859 0.128-2.791 0.152-0.475 0.013-0.95 0.019-1.425 0.018-1.889-0.001-3.777-0.111-5.654-0.329-0.203-0.024-0.406-0.050-0.61-0.076 0.158 0.020-0.114-0.016-0.17-0.023-0.129-0.018-0.258-0.037-0.387-0.056-0.433-0.065-0.864-0.145-1.297-0.215-0.523-0.086-1.023-0.043-1.496 0.215-0.388 0.213-0.703 0.538-0.901 0.934-0.204 0.422-0.265 0.881-0.356 1.335s-0.233 0.941-0.18 1.406c0.116 1.004 0.818 1.821 1.828 2.003 0.95 0.172 1.905 0.312 2.863 0.431 3.763 0.461 7.564 0.516 11.338 0.164 0.307-0.029 0.614-0.060 0.921-0.094 0.096-0.011 0.193 0.001 0.284 0.032s0.174 0.084 0.242 0.151c0.068 0.068 0.121 0.15 0.153 0.241s0.044 0.188 0.034 0.283l-0.096 0.929c-0.193 1.877-0.385 3.754-0.578 5.631-0.201 1.971-0.403 3.942-0.607 5.913-0.057 0.555-0.115 1.11-0.172 1.665-0.055 0.546-0.063 1.11-0.167 1.65-0.164 0.849-0.738 1.37-1.577 1.561-0.768 0.175-1.553 0.267-2.341 0.274-0.873 0.005-1.746-0.034-2.62-0.029-0.932 0.005-2.075-0.081-2.794-0.775-0.632-0.609-0.72-1.564-0.806-2.389-0.115-1.093-0.229-2.185-0.341-3.277l-1.042-10.004c-0.007-0.065-0.014-0.129-0.020-0.195-0.049-0.469-0.381-0.928-0.904-0.904-0.448 0.020-0.957 0.4-0.904 0.904l0.304 2.914 0.628 6.027c0.179 1.712 0.357 3.424 0.535 5.137 0.034 0.328 0.067 0.657 0.103 0.985 0.197 1.793 1.566 2.759 3.261 3.031 0.99 0.159 2.004 0.192 3.009 0.208 1.288 0.021 2.589 0.070 3.856-0.163 1.877-0.345 3.286-1.598 3.487-3.543 0.057-0.561 0.115-1.123 0.172-1.685 0.191-1.857 0.381-3.715 0.572-5.573l0.622-6.070 0.285-2.782c0.014-0.138 0.072-0.268 0.166-0.37s0.218-0.172 0.354-0.198c0.537-0.105 1.050-0.283 1.432-0.692 0.608-0.65 0.729-1.499 0.514-2.354zM1.812 9.153c0.008-0.004-0.007 0.066-0.013 0.099-0.001-0.050 0.001-0.093 0.013-0.099zM1.864 9.556c0.004-0.003 0.017 0.014 0.031 0.035-0.020-0.019-0.033-0.033-0.031-0.035h0zM1.915 9.624c0.018 0.031 0.028 0.051 0 0v0zM2.018 9.707h0.003c0 0.003 0.005 0.006 0.006 0.009-0.003-0.003-0.006-0.006-0.009-0.009h0zM20.036 9.582c-0.193 0.183-0.483 0.269-0.771 0.311-3.22 0.478-6.487 0.72-9.743 0.613-2.33-0.080-4.635-0.338-6.942-0.664-0.226-0.032-0.471-0.073-0.626-0.24-0.293-0.314-0.149-0.947-0.073-1.327 0.070-0.348 0.203-0.811 0.617-0.861 0.646-0.076 1.396 0.197 2.035 0.294 0.769 0.117 1.541 0.211 2.316 0.282 3.307 0.301 6.67 0.254 9.962-0.186 0.6-0.081 1.198-0.174 1.794-0.281 0.531-0.095 1.119-0.274 1.44 0.276 0.22 0.375 0.249 0.876 0.215 1.299-0.010 0.184-0.091 0.358-0.225 0.485h0z"></path>
    </symbol>
    <symbol id="icon-close" viewBox="0 0 32 32">
    <path d="M17.88 16l5.733-5.72c0.242-0.242 0.392-0.577 0.392-0.947 0-0.739-0.599-1.339-1.339-1.339-0.37 0-0.704 0.15-0.947 0.392v0l-5.72 5.733-5.72-5.733c-0.242-0.242-0.577-0.392-0.947-0.392-0.739 0-1.339 0.599-1.339 1.339 0 0.37 0.15 0.704 0.392 0.947v0l5.733 5.72-5.733 5.72c-0.244 0.242-0.394 0.577-0.394 0.947s0.151 0.705 0.394 0.947l0 0c0.242 0.244 0.577 0.394 0.947 0.394s0.705-0.151 0.947-0.394l0-0 5.72-5.733 5.72 5.733c0.242 0.244 0.577 0.394 0.947 0.394s0.705-0.151 0.947-0.394l0-0c0.244-0.242 0.394-0.577 0.394-0.947s-0.151-0.705-0.394-0.947l-0-0z"></path>
    </symbol>
    <symbol id="icon-back" viewBox="0 0 32 32">
    <path d="M6.831 18h23.169c1.106 0 2-0.894 2-2s-0.894-2-2-2h-23.169l4.588-4.588c0.781-0.781 0.781-2.050 0-2.831s-2.050-0.781-2.831 0l-8 8c-0.781 0.781-0.781 2.050 0 2.831l8 8c0.781 0.781 2.050 0.781 2.831 0s0.781-2.050 0-2.831l-4.588-4.581z"></path>
    </symbol>
    <symbol id="icon-linkedinin" viewBox="0 0 28 32">
    <path d="M6.268 28h-5.805v-18.694h5.805zM3.362 6.756c-1.856 0-3.362-1.537-3.362-3.394s1.505-3.362 3.362-3.362 3.362 1.505 3.362 3.362v0c0 1.856-1.506 3.394-3.362 3.394zM27.994 28h-5.793v-9.1c0-2.169-0.044-4.95-3.018-4.95-3.018 0-3.481 2.356-3.481 4.794v9.256h-5.799v-18.694h5.568v2.55h0.081c0.775-1.469 2.668-3.019 5.492-3.019 5.875 0 6.955 3.869 6.955 8.894v10.269z"></path>
    </symbol>
  </defs>
</svg>